<?xml version="1.0" encoding="UTF-8"?>
<svg width="512" height="512" viewBox="0 0 512 512" xmlns="http://www.w3.org/2000/svg">
  <defs>
    <linearGradient id="body" x1="0" y1="0" x2="1" y2="1">
      <stop offset="0%" stop-color="#ff5a5a"/>
      <stop offset="35%" stop-color="#ff1f2d"/>
      <stop offset="100%" stop-color="#b40011"/>
    </linearGradient>

    <linearGradient id="highlight" x1="0" y1="0" x2="1" y2="1">
      <stop offset="0%" stop-color="rgba(255,255,255,0.9)"/>
      <stop offset="100%" stop-color="rgba(255,255,255,0)"/>
    </linearGradient>

    <filter id="shadow" x="-30%" y="-30%" width="160%" height="160%">
      <feDropShadow dx="0" dy="10" stdDeviation="10" flood-color="#700000" flood-opacity="0.35"/>
    </filter>
  </defs>

  <g filter="url(#shadow)">
    <path
      d="M256 38
         C166 38 108 105 108 191
         C108 266 167 319 222 401
         L243 434
         C248 442 264 442 269 434
         L290 401
         C345 319 404 266 404 191
         C404 105 346 38 256 38Z"
      fill="url(#body)"/>

    <circle cx="256" cy="190" r="78" fill="white"/>

    <path
      d="M170 92
         C140 120 132 170 145 220
         C160 190 176 150 210 120
         C245 90 285 82 320 90
         C286 62 217 60 170 92Z"
      fill="white"
      opacity="0.22"/>

    <ellipse
      cx="305"
      cy="112"
      rx="45"
      ry="12"
      transform="rotate(20 305 112)"
      fill="white"
      opacity="0.55"/>

    <ellipse
      cx="188"
      cy="214"
      rx="24"
      ry="10"
      transform="rotate(-30 188 214)"
      fill="white"
      opacity="0.18"/>
  </g>
</svg>
